{
  "accessors": [
    {
      "bufferView": 2,
      "componentType": 5126,
      "count": 384,
      "max": [
        0.24784171581268311,
        0.22393156588077545,
        1.7329107522964478
      ],
      "min": [
        -0.24784171581268311,
        -0.22393156588077545,
        0.0046547651290893555
      ],
      "type": "VEC3"
    },
    {
      "bufferView": 2,
      "byteOffset": 4608,
      "componentType": 5126,
      "count": 384,
      "max": [
        1,
        0.99518489837646484,
        1
      ],
      "min": [
        -1,
        -0.99518489837646484,
        -1
      ],
      "type": "VEC3"
    },
    {
      "bufferView": 3,
      "componentType": 5126,
      "count": 384,
      "max": [
        1,
        1,
        1,
        1
      ],
      "min": [
        -1,
        -1,
        -1,
        1
      ],
      "type": "VEC4"
    },
    {
      "bufferView": 1,
      "componentType": 5126,
      "count": 384,
      "max": [
        0.97333168983459473,
        0.998046875
      ],
      "min": [
        0.001953125,
        0.001953125
      ],
      "type": "VEC2"
    },
    {
      "bufferView": 0,
      "componentType": 5125,
      "count": 1044,
      "max": [
        383
      ],
      "min": [
        0
      ],
      "type": "SCALAR"
    },
    {
      "bufferView": 2,
      "byteOffset": 9216,
      "componentType": 5126,
      "count": 176,
      "max": [
        0.013469874858856201,
        0.023694559931755066,
        0.0034368038177490234
      ],
      "min": [
        -0.017370641231536865,
        -0.36420652270317078,
        -1.5994014739990234
      ],
      "type": "VEC3"
    },
    {
      "bufferView": 2,
      "byteOffset": 11328,
      "componentType": 5126,
      "count": 176,
      "max": [
        1,
        1,
        1
      ],
      "min": [
        -1,
        -1,
        -1
      ],
      "type": "VEC3"
    },
    {
      "bufferView": 3,
      "byteOffset": 6144,
      "componentType": 5126,
      "count": 176,
      "max": [
        1,
        1,
        0.99518465995788574,
        1
      ],
      "min": [
        -1,
        -1,
        -0.99518465995788574,
        -1
      ],
      "type": "VEC4"
    },
    {
      "bufferView": 1,
      "byteOffset": 3072,
      "componentType": 5126,
      "count": 176,
      "max": [
        0.99175530672073364,
        0.94995701313018799
      ],
      "min": [
        0.001953125,
        0.001953125
      ],
      "type": "VEC2"
    },
    {
      "bufferView": 0,
      "byteOffset": 4176,
      "componentType": 5125,
      "count": 408,
      "max": [
        175
      ],
      "min": [
        0
      ],
      "type": "SCALAR"
    },
    {
      "bufferView": 2,
      "byteOffset": 13440,
      "componentType": 5126,
      "count": 384,
      "max": [
        0.24784171581268311,
        0.22393156588077545,
        1.7329107522964478
      ],
      "min": [
        -0.24784171581268311,
        -0.22393156588077545,
        0.0046547651290893555
      ],
      "type": "VEC3"
    },
    {
      "bufferView": 2,
      "byteOffset": 18048,
      "componentType": 5126,
      "count": 384,
      "max": [
        1,
        0.99518489837646484,
        1
      ],
      "min": [
        -1,
        -0.99518489837646484,
        -1
      ],
      "type": "VEC3"
    },
    {
      "bufferView": 3,
      "byteOffset": 8960,
      "componentType": 5126,
      "count": 384,
      "max": [
        1,
        1,
        1,
        1
      ],
      "min": [
        -1,
        -1,
        -1,
        1
      ],
      "type": "VEC4"
    },
    {
      "bufferView": 1,
      "byteOffset": 4480,
      "componentType": 5126,
      "count": 384,
      "max": [
        0.97333168983459473,
        0.998046875
      ],
      "min": [
        0.001953125,
        0.001953125
      ],
      "type": "VEC2"
    },
    {
      "bufferView": 0,
      "byteOffset": 5808,
      "componentType": 5125,
      "count": 1044,
      "max": [
        383
      ],
      "min": [
        0
      ],
      "type": "SCALAR"
    },
    {
      "bufferView": 2,
      "byteOffset": 22656,
      "componentType": 5126,
      "count": 176,
      "max": [
        0.013469874858856201,
        0.023694559931755066,
        0.0034368038177490234
      ],
      "min": [
        -0.017370641231536865,
        -0.36420652270317078,
        -1.5994014739990234
      ],
      "type": "VEC3"
    },
    {
      "bufferView": 2,
      "byteOffset": 24768,
      "componentType": 5126,
      "count": 176,
      "max": [
        1,
        1,
        1
      ],
      "min": [
        -1,
        -1,
        -1
      ],
      "type": "VEC3"
    },
    {
      "bufferView": 3,
      "byteOffset": 15104,
      "componentType": 5126,
      "count": 176,
      "max": [
        1,
        1,
        0.99518465995788574,
        1
      ],
      "min": [
        -1,
        -1,
        -0.99518465995788574,
        -1
      ],
      "type": "VEC4"
    },
    {
      "bufferView": 1,
      "byteOffset": 7552,
      "componentType": 5126,
      "count": 176,
      "max": [
        0.99175530672073364,
        0.94995701313018799
      ],
      "min": [
        0.001953125,
        0.001953125
      ],
      "type": "VEC2"
    },
    {
      "bufferView": 0,
      "byteOffset": 9984,
      "componentType": 5125,
      "count": 408,
      "max": [
        175
      ],
      "min": [
        0
      ],
      "type": "SCALAR"
    },
    {
      "bufferView": 2,
      "byteOffset": 26880,
      "componentType": 5126,
      "count": 384,
      "max": [
        0.24784171581268311,
        0.22393156588077545,
        1.7329107522964478
      ],
      "min": [
        -0.24784171581268311,
        -0.22393156588077545,
        0.0046547651290893555
      ],
      "type": "VEC3"
    },
    {
      "bufferView": 2,
      "byteOffset": 31488,
      "componentType": 5126,
      "count": 384,
      "max": [
        1,
        0.99518489837646484,
        1
      ],
      "min": [
        -1,
        -0.99518489837646484,
        -1
      ],
      "type": "VEC3"
    },
    {
      "bufferView": 3,
      "byteOffset": 17920,
      "componentType": 5126,
      "count": 384,
      "max": [
        1,
        1,
        1,
        1
      ],
      "min": [
        -1,
        -1,
        -1,
        1
      ],
      "type": "VEC4"
    },
    {
      "bufferView": 1,
      "byteOffset": 8960,
      "componentType": 5126,
      "count": 384,
      "max": [
        0.97333168983459473,
        0.998046875
      ],
      "min": [
        0.001953125,
        0.001953125
      ],
      "type": "VEC2"
    },
    {
      "bufferView": 0,
      "byteOffset": 11616,
      "componentType": 5125,
      "count": 1044,
      "max": [
        383
      ],
      "min": [
        0
      ],
      "type": "SCALAR"
    },
    {
      "bufferView": 2,
      "byteOffset": 36096,
      "componentType": 5126,
      "count": 176,
      "max": [
        0.013469874858856201,
        0.023694559931755066,
        0.0034368038177490234
      ],
      "min": [
        -0.017370641231536865,
        -0.36420652270317078,
        -1.5994014739990234
      ],
      "type": "VEC3"
    },
    {
      "bufferView": 2,
      "byteOffset": 38208,
      "componentType": 5126,
      "count": 176,
      "max": [
        1,
        1,
        1
      ],
      "min": [
        -1,
        -1,
        -1
      ],
      "type": "VEC3"
    },
    {
      "bufferView": 3,
      "byteOffset": 24064,
      "componentType": 5126,
      "count": 176,
      "max": [
        1,
        1,
        0.99518465995788574,
        1
      ],
      "min": [
        -1,
        -1,
        -0.99518465995788574,
        -1
      ],
      "type": "VEC4"
    },
    {
      "bufferView": 1,
      "byteOffset": 12032,
      "componentType": 5126,
      "count": 176,
      "max": [
        0.99175530672073364,
        0.94995701313018799
      ],
      "min": [
        0.001953125,
        0.001953125
      ],
      "type": "VEC2"
    },
    {
      "bufferView": 0,
      "byteOffset": 15792,
      "componentType": 5125,
      "count": 408,
      "max": [
        175
      ],
      "min": [
        0
      ],
      "type": "SCALAR"
    }
  ],
  "asset": {
    "extras": {
      "author": "Igor_K. (https://sketchfab.com/Igor_K.)",
      "license": "CC-BY-4.0 (http://creativecommons.org/licenses/by/4.0/)",
      "source": "https://sketchfab.com/3d-models/sci-fi-locker-d094c872f8724aa3aba90d04b3bd73cf",
      "title": "Sci-Fi Locker"
    },
    "generator": "Sketchfab-10.3.0",
    "version": "2.0"
  },
  "bufferViews": [
    {
      "buffer": 0,
      "byteLength": 17424,
      "byteOffset": 0,
      "name": "floatBufferViews",
      "target": 34963
    },
    {
      "buffer": 0,
      "byteLength": 13440,
      "byteOffset": 17424,
      "byteStride": 8,
      "name": "floatBufferViews",
      "target": 34962
    },
    {
      "buffer": 0,
      "byteLength": 40320,
      "byteOffset": 30864,
      "byteStride": 12,
      "name": "floatBufferViews",
      "target": 34962
    },
    {
      "buffer": 0,
      "byteLength": 26880,
      "byteOffset": 71184,
      "byteStride": 16,
      "name": "floatBufferViews",
      "target": 34962
    }
  ],
  "buffers": [
    {
      "byteLength": 98064,
      "uri": "scene.bin"
    }
  ],
  "images": [
    {
      "uri": "textures/locker.001_baseColor.png"
    },
    {
      "uri": "textures/locker.001_metallicRoughness.png"
    },
    {
      "uri": "textures/locker.001_emissive.png"
    },
    {
      "uri": "textures/locker.001_normal.png"
    }
  ],
  "materials": [
    {
      "doubleSided": true,
      "emissiveFactor": [
        1,
        1,
        1
      ],
      "emissiveTexture": {
        "index": 2,
        "texCoord": 0
      },
      "name": "locker.001",
      "normalTexture": {
        "index": 3,
        "scale": 1,
        "texCoord": 0
      },
      "occlusionTexture": {
        "index": 1,
        "strength": 1,
        "texCoord": 0
      },
      "pbrMetallicRoughness": {
        "baseColorFactor": [
          1,
          1,
          1,
          1
        ],
        "baseColorTexture": {
          "index": 0,
          "texCoord": 0
        },
        "metallicFactor": 1,
        "metallicRoughnessTexture": {
          "index": 1,
          "texCoord": 0
        },
        "roughnessFactor": 1
      }
    }
  ],
  "meshes": [
    {
      "name": "locker_low_locker.001_0",
      "primitives": [
        {
          "attributes": {
            "NORMAL": 1,
            "POSITION": 0,
            "TANGENT": 2,
            "TEXCOORD_0": 3
          },
          "indices": 4,
          "material": 0,
          "mode": 4
        }
      ]
    },
    {
      "name": "door_low_locker.001_0",
      "primitives": [
        {
          "attributes": {
            "NORMAL": 6,
            "POSITION": 5,
            "TANGENT": 7,
            "TEXCOORD_0": 8
          },
          "indices": 9,
          "material": 0,
          "mode": 4
        }
      ]
    },
    {
      "name": "locker_low.001_locker.001_0",
      "primitives": [
        {
          "attributes": {
            "NORMAL": 11,
            "POSITION": 10,
            "TANGENT": 12,
            "TEXCOORD_0": 13
          },
          "indices": 14,
          "material": 0,
          "mode": 4
        }
      ]
    },
    {
      "name": "door_low.001_locker.001_0",
      "primitives": [
        {
          "attributes": {
            "NORMAL": 16,
            "POSITION": 15,
            "TANGENT": 17,
            "TEXCOORD_0": 18
          },
          "indices": 19,
          "material": 0,
          "mode": 4
        }
      ]
    },
    {
      "name": "locker_low.002_locker.001_0",
      "primitives": [
        {
          "attributes": {
            "NORMAL": 21,
            "POSITION": 20,
            "TANGENT": 22,
            "TEXCOORD_0": 23
          },
          "indices": 24,
          "material": 0,
          "mode": 4
        }
      ]
    },
    {
      "name": "door_low.002_locker.001_0",
      "primitives": [
        {
          "attributes": {
            "NORMAL": 26,
            "POSITION": 25,
            "TANGENT": 27,
            "TEXCOORD_0": 28
          },
          "indices": 29,
          "material": 0,
          "mode": 4
        }
      ]
    }
  ],
  "nodes": [
    {
      "children": [
        1
      ],
      "name": "RootNode (gltf orientation matrix)",
      "rotation": [
        -0.70710678118654746,
        -0,
        -0,
        0.70710678118654757
      ]
    },
    {
      "children": [
        2
      ],
      "name": "RootNode (model correction matrix)"
    },
    {
      "children": [
        3
      ],
      "matrix": [
        1,
        0,
        0,
        0,
        0,
        0,
        1,
        0,
        0,
        -1,
        0,
        0,
        0,
        0,
        0,
        1
      ],
      "name": "32dc5d07e8be4ebfb8cff3ef42963d05.fbx"
    },
    {
      "children": [
        4,
        6,
        8,
        10,
        12,
        14
      ],
      "name": "RootNode"
    },
    {
      "children": [
        5
      ],
      "matrix": [
        100,
        0,
        0,
        0,
        0,
        -1.6292067939183141e-05,
        -99.999999999998678,
        0,
        0,
        99.999999999998678,
        -1.6292067939183141e-05,
        0,
        0,
        0,
        0,
        1
      ],
      "name": "locker_low"
    },
    {
      "mesh": 0,
      "name": "locker_low_locker.001_0"
    },
    {
      "children": [
        7
      ],
      "matrix": [
        100,
        0,
        0,
        0,
        0,
        -1.6292067939183141e-05,
        -99.999999999998678,
        0,
        0,
        99.999999999998678,
        -1.6292067939183141e-05,
        0,
        24.862354278564453,
        169.94929504394531,
        -17.025596618652344,
        1
      ],
      "name": "door_low"
    },
    {
      "mesh": 1,
      "name": "door_low_locker.001_0"
    },
    {
      "children": [
        9
      ],
      "matrix": [
        100,
        0,
        0,
        0,
        0,
        -1.6292067939183141e-05,
        -99.999999999998678,
        0,
        0,
        99.999999999998678,
        -1.6292067939183141e-05,
        0,
        0,
        0,
        -43.989471435546875,
        1
      ],
      "name": "locker_low.001"
    },
    {
      "mesh": 2,
      "name": "locker_low.001_locker.001_0"
    },
    {
      "children": [
        11
      ],
      "matrix": [
        94.37537266859475,
        1.7026465376490663e-06,
        -33.064921497923685,
        0,
        -33.064921497922938,
        -1.6888599341235988e-05,
        -94.375372668593513,
        0,
        -7.1910811277886566e-06,
        99.999999999998565,
        -1.5375699824460298e-05,
        0,
        24.862354278564453,
        169.94929504394531,
        -61.015068054199219,
        1
      ],
      "name": "door_low.001"
    },
    {
      "mesh": 3,
      "name": "door_low.001_locker.001_0"
    },
    {
      "children": [
        13
      ],
      "matrix": [
        100,
        0,
        0,
        0,
        0,
        -1.6292067939183141e-05,
        -99.999999999998678,
        0,
        0,
        99.999999999998678,
        -1.6292067939183141e-05,
        0,
        0,
        0,
        44.530380249023438,
        1
      ],
      "name": "locker_low.002"
    },
    {
      "mesh": 4,
      "name": "locker_low.002_locker.001_0"
    },
    {
      "children": [
        15
      ],
      "matrix": [
        68.781580435109618,
        -2.7888359455108258e-06,
        -72.588526592351627,
        0,
        -72.588526592351272,
        -1.3348874583485326e-05,
        -68.781580435108765,
        0,
        -7.7715459345650828e-06,
        99.999999999999062,
        -1.1205941818914766e-05,
        0,
        24.862354278564453,
        169.94929504394531,
        27.504783630371094,
        1
      ],
      "name": "door_low.002"
    },
    {
      "mesh": 5,
      "name": "door_low.002_locker.001_0"
    }
  ],
  "samplers": [
    {
      "magFilter": 9729,
      "minFilter": 9987,
      "wrapS": 10497,
      "wrapT": 10497
    }
  ],
  "scene": 0,
  "scenes": [
    {
      "name": "OSG_Scene",
      "nodes": [
        0
      ]
    }
  ],
  "textures": [
    {
      "sampler": 0,
      "source": 0
    },
    {
      "sampler": 0,
      "source": 1
    },
    {
      "sampler": 0,
      "source": 2
    },
    {
      "sampler": 0,
      "source": 3
    }
  ]
}

