{
  "accessors": [
    {
      "bufferView": 2,
      "componentType": 5126,
      "count": 1823,
      "max": [
        1.9949096441268921,
        1.4514106512069702,
        0.37714654207229614
      ],
      "min": [
        0.97993505001068115,
        -1.4550247192382812,
        -0.37714597582817078
      ],
      "type": "VEC3"
    },
    {
      "bufferView": 2,
      "byteOffset": 21876,
      "componentType": 5126,
      "count": 1823,
      "max": [
        0.99676871299743652,
        0.99893206357955933,
        1
      ],
      "min": [
        -0.91481935977935791,
        -0.8871338963508606,
        -1
      ],
      "type": "VEC3"
    },
    {
      "bufferView": 3,
      "componentType": 5126,
      "count": 1823,
      "max": [
        1,
        0.9988589882850647,
        0.88714867830276489,
        1
      ],
      "min": [
        -0.99896913766860962,
        -1,
        -0.88714861869812012,
        -1
      ],
      "type": "VEC4"
    },
    {
      "bufferView": 1,
      "componentType": 5126,
      "count": 1823,
      "max": [
        1,
        1
      ],
      "min": [
        0,
        0
      ],
      "type": "VEC2"
    },
    {
      "bufferView": 1,
      "byteOffset": 14584,
      "componentType": 5126,
      "count": 1823,
      "max": [
        0,
        0
      ],
      "min": [
        0,
        0
      ],
      "type": "VEC2"
    },
    {
      "bufferView": 1,
      "byteOffset": 29168,
      "componentType": 5126,
      "count": 1823,
      "max": [
        0,
        0
      ],
      "min": [
        0,
        0
      ],
      "type": "VEC2"
    },
    {
      "bufferView": 1,
      "byteOffset": 43752,
      "componentType": 5126,
      "count": 1823,
      "max": [
        0,
        0
      ],
      "min": [
        0,
        0
      ],
      "type": "VEC2"
    },
    {
      "bufferView": 1,
      "byteOffset": 58336,
      "componentType": 5126,
      "count": 1823,
      "max": [
        0,
        0
      ],
      "min": [
        0,
        0
      ],
      "type": "VEC2"
    },
    {
      "bufferView": 1,
      "byteOffset": 72920,
      "componentType": 5126,
      "count": 1823,
      "max": [
        0,
        0
      ],
      "min": [
        0,
        0
      ],
      "type": "VEC2"
    },
    {
      "bufferView": 0,
      "componentType": 5125,
      "count": 4038,
      "max": [
        1822
      ],
      "min": [
        0
      ],
      "type": "SCALAR"
    },
    {
      "bufferView": 2,
      "byteOffset": 43752,
      "componentType": 5126,
      "count": 465,
      "max": [
        1.2791112661361694,
        1.3874784708023071,
        0.12819908559322357
      ],
      "min": [
        -2.0584778785705566,
        -1.3591264486312866,
        -0.12819913029670715
      ],
      "type": "VEC3"
    },
    {
      "bufferView": 2,
      "byteOffset": 49332,
      "componentType": 5126,
      "count": 465,
      "max": [
        0.72788095474243164,
        0.72788095474243164,
        1
      ],
      "min": [
        -0.90453958511352539,
        -0.72788095474243164,
        -1
      ],
      "type": "VEC3"
    },
    {
      "bufferView": 3,
      "byteOffset": 29168,
      "componentType": 5126,
      "count": 465,
      "max": [
        1,
        0.99974679946899414,
        0.81519752740859985,
        1
      ],
      "min": [
        -0.99774342775344849,
        -0.99974727630615234,
        -0.77423602342605591,
        -1
      ],
      "type": "VEC4"
    },
    {
      "bufferView": 1,
      "byteOffset": 87504,
      "componentType": 5126,
      "count": 465,
      "max": [
        1,
        1
      ],
      "min": [
        0,
        0
      ],
      "type": "VEC2"
    },
    {
      "bufferView": 1,
      "byteOffset": 91224,
      "componentType": 5126,
      "count": 465,
      "max": [
        0,
        0
      ],
      "min": [
        0,
        0
      ],
      "type": "VEC2"
    },
    {
      "bufferView": 1,
      "byteOffset": 94944,
      "componentType": 5126,
      "count": 465,
      "max": [
        0,
        0
      ],
      "min": [
        0,
        0
      ],
      "type": "VEC2"
    },
    {
      "bufferView": 1,
      "byteOffset": 98664,
      "componentType": 5126,
      "count": 465,
      "max": [
        0,
        0
      ],
      "min": [
        0,
        0
      ],
      "type": "VEC2"
    },
    {
      "bufferView": 1,
      "byteOffset": 102384,
      "componentType": 5126,
      "count": 465,
      "max": [
        0,
        0
      ],
      "min": [
        0,
        0
      ],
      "type": "VEC2"
    },
    {
      "bufferView": 1,
      "byteOffset": 106104,
      "componentType": 5126,
      "count": 465,
      "max": [
        0,
        0
      ],
      "min": [
        0,
        0
      ],
      "type": "VEC2"
    },
    {
      "bufferView": 0,
      "byteOffset": 16152,
      "componentType": 5125,
      "count": 1296,
      "max": [
        464
      ],
      "min": [
        0
      ],
      "type": "SCALAR"
    },
    {
      "bufferView": 2,
      "byteOffset": 54912,
      "componentType": 5126,
      "count": 240,
      "max": [
        1.656211256980896,
        1.1586593389511108,
        0.37714529037475586
      ],
      "min": [
        1.115746021270752,
        0.6181941032409668,
        -0.37714540958404541
      ],
      "type": "VEC3"
    },
    {
      "bufferView": 2,
      "byteOffset": 57792,
      "componentType": 5126,
      "count": 240,
      "max": [
        0.72788095474243164,
        0.72788095474243164,
        0.72985142469406128
      ],
      "min": [
        -0.72788095474243164,
        -0.72788095474243164,
        -0.72985142469406128
      ],
      "type": "VEC3"
    },
    {
      "bufferView": 3,
      "byteOffset": 36608,
      "componentType": 5126,
      "count": 240,
      "max": [
        0.99773120880126953,
        0.99772727489471436,
        0.72788387537002563,
        1
      ],
      "min": [
        -0.99772727489471436,
        -0.99772560596466064,
        -0.72766381502151489,
        -1
      ],
      "type": "VEC4"
    },
    {
      "bufferView": 1,
      "byteOffset": 109824,
      "componentType": 5126,
      "count": 240,
      "max": [
        0.94629311561584473,
        0.44629287719726562
      ],
      "min": [
        0.053706984966993332,
        0.053706999868154526
      ],
      "type": "VEC2"
    },
    {
      "bufferView": 1,
      "byteOffset": 111744,
      "componentType": 5126,
      "count": 240,
      "max": [
        0,
        0
      ],
      "min": [
        0,
        0
      ],
      "type": "VEC2"
    },
    {
      "bufferView": 1,
      "byteOffset": 113664,
      "componentType": 5126,
      "count": 240,
      "max": [
        0,
        0
      ],
      "min": [
        0,
        0
      ],
      "type": "VEC2"
    },
    {
      "bufferView": 1,
      "byteOffset": 115584,
      "componentType": 5126,
      "count": 240,
      "max": [
        0,
        0
      ],
      "min": [
        0,
        0
      ],
      "type": "VEC2"
    },
    {
      "bufferView": 1,
      "byteOffset": 117504,
      "componentType": 5126,
      "count": 240,
      "max": [
        0,
        0
      ],
      "min": [
        0,
        0
      ],
      "type": "VEC2"
    },
    {
      "bufferView": 1,
      "byteOffset": 119424,
      "componentType": 5126,
      "count": 240,
      "max": [
        0,
        0
      ],
      "min": [
        0,
        0
      ],
      "type": "VEC2"
    },
    {
      "bufferView": 0,
      "byteOffset": 21336,
      "componentType": 5125,
      "count": 564,
      "max": [
        239
      ],
      "min": [
        0
      ],
      "type": "SCALAR"
    },
    {
      "bufferView": 2,
      "byteOffset": 60672,
      "componentType": 5126,
      "count": 260,
      "max": [
        1.7144765853881836,
        1.2169246673583984,
        0.12571516633033752
      ],
      "min": [
        1.0574805736541748,
        0.5599287748336792,
        -0.12571531534194946
      ],
      "type": "VEC3"
    },
    {
      "bufferView": 2,
      "byteOffset": 63792,
      "componentType": 5126,
      "count": 260,
      "max": [
        0.72788095474243164,
        0.72788095474243164,
        0.72985142469406128
      ],
      "min": [
        -0.72788095474243164,
        -0.72788095474243164,
        -0.72985142469406128
      ],
      "type": "VEC3"
    },
    {
      "bufferView": 3,
      "byteOffset": 40448,
      "componentType": 5126,
      "count": 260,
      "max": [
        0.75784027576446533,
        0.98857516050338745,
        0.72788733243942261,
        1
      ],
      "min": [
        -0.73837023973464966,
        -0.72984743118286133,
        -0.68362200260162354,
        -1
      ],
      "type": "VEC4"
    },
    {
      "bufferView": 1,
      "byteOffset": 121344,
      "componentType": 5126,
      "count": 260,
      "max": [
        1,
        0.76319342851638794
      ],
      "min": [
        0,
        0.054136209189891815
      ],
      "type": "VEC2"
    },
    {
      "bufferView": 1,
      "byteOffset": 123424,
      "componentType": 5126,
      "count": 260,
      "max": [
        0,
        0
      ],
      "min": [
        0,
        0
      ],
      "type": "VEC2"
    },
    {
      "bufferView": 1,
      "byteOffset": 125504,
      "componentType": 5126,
      "count": 260,
      "max": [
        0,
        0
      ],
      "min": [
        0,
        0
      ],
      "type": "VEC2"
    },
    {
      "bufferView": 1,
      "byteOffset": 127584,
      "componentType": 5126,
      "count": 260,
      "max": [
        0,
        0
      ],
      "min": [
        0,
        0
      ],
      "type": "VEC2"
    },
    {
      "bufferView": 1,
      "byteOffset": 129664,
      "componentType": 5126,
      "count": 260,
      "max": [
        0,
        0
      ],
      "min": [
        0,
        0
      ],
      "type": "VEC2"
    },
    {
      "bufferView": 1,
      "byteOffset": 131744,
      "componentType": 5126,
      "count": 260,
      "max": [
        0,
        0
      ],
      "min": [
        0,
        0
      ],
      "type": "VEC2"
    },
    {
      "bufferView": 0,
      "byteOffset": 23592,
      "componentType": 5125,
      "count": 396,
      "max": [
        259
      ],
      "min": [
        0
      ],
      "type": "SCALAR"
    }
  ],
  "asset": {
    "extras": {
      "author": "NinJOke (https://sketchfab.com/NinJOke)",
      "license": "CC-BY-4.0 (http://creativecommons.org/licenses/by/4.0/)",
      "source": "https://sketchfab.com/3d-models/key-card-559d847c11e74dcca5e569b2bbba33e6",
      "title": "Key Card"
    },
    "generator": "Sketchfab-5.13.1",
    "version": "2.0"
  },
  "bufferViews": [
    {
      "buffer": 0,
      "byteLength": 25176,
      "byteOffset": 0,
      "name": "floatBufferViews",
      "target": 34963
    },
    {
      "buffer": 0,
      "byteLength": 133824,
      "byteOffset": 25176,
      "byteStride": 8,
      "name": "floatBufferViews",
      "target": 34962
    },
    {
      "buffer": 0,
      "byteLength": 66912,
      "byteOffset": 159000,
      "byteStride": 12,
      "name": "floatBufferViews",
      "target": 34962
    },
    {
      "buffer": 0,
      "byteLength": 44608,
      "byteOffset": 225912,
      "byteStride": 16,
      "name": "floatBufferViews",
      "target": 34962
    }
  ],
  "buffers": [
    {
      "byteLength": 270520,
      "uri": "scene.bin"
    }
  ],
  "materials": [
    {
      "doubleSided": true,
      "emissiveFactor": [
        0,
        0,
        0
      ],
      "name": "Metal",
      "pbrMetallicRoughness": {
        "baseColorFactor": [
          0.86482458200000001,
          0.86482458200000001,
          0.86482458200000001,
          1
        ],
        "metallicFactor": 1,
        "roughnessFactor": 0.91788286320000001
      }
    },
    {
      "alphaMode": "BLEND",
      "doubleSided": true,
      "emissiveFactor": [
        0.026472627096696431,
        1,
        1
      ],
      "name": "Hologram",
      "pbrMetallicRoughness": {
        "baseColorFactor": [
          0.015913900000000002,
          0.80000000000000004,
          0.80000000000000004,
          0.5
        ],
        "metallicFactor": 0,
        "roughnessFactor": 0.55926067070000007
      }
    },
    {
      "doubleSided": true,
      "emissiveFactor": [
        0,
        0,
        0
      ],
      "name": "Button",
      "pbrMetallicRoughness": {
        "baseColorFactor": [
          0.34174559240000002,
          0.34174559240000002,
          0.34174559240000002,
          1
        ],
        "metallicFactor": 0.14805640240000001,
        "roughnessFactor": 0.85987389329999997
      }
    },
    {
      "doubleSided": true,
      "emissiveFactor": [
        0,
        1,
        1
      ],
      "name": "Light",
      "pbrMetallicRoughness": {
        "baseColorFactor": [
          0,
          1,
          0.85203399999999996,
          1
        ],
        "metallicFactor": 0,
        "roughnessFactor": 0.8263208313
      }
    }
  ],
  "meshes": [
    {
      "name": "Plane_Metal_0",
      "primitives": [
        {
          "attributes": {
            "NORMAL": 1,
            "POSITION": 0,
            "TANGENT": 2,
            "TEXCOORD_0": 3,
            "TEXCOORD_1": 4,
            "TEXCOORD_2": 5,
            "TEXCOORD_3": 6,
            "TEXCOORD_4": 7,
            "TEXCOORD_5": 8
          },
          "indices": 9,
          "material": 0,
          "mode": 4
        }
      ]
    },
    {
      "name": "Plane_Hologram_0",
      "primitives": [
        {
          "attributes": {
            "NORMAL": 11,
            "POSITION": 10,
            "TANGENT": 12,
            "TEXCOORD_0": 13,
            "TEXCOORD_1": 14,
            "TEXCOORD_2": 15,
            "TEXCOORD_3": 16,
            "TEXCOORD_4": 17,
            "TEXCOORD_5": 18
          },
          "indices": 19,
          "material": 1,
          "mode": 4
        }
      ]
    },
    {
      "name": "Plane_Button_0",
      "primitives": [
        {
          "attributes": {
            "NORMAL": 21,
            "POSITION": 20,
            "TANGENT": 22,
            "TEXCOORD_0": 23,
            "TEXCOORD_1": 24,
            "TEXCOORD_2": 25,
            "TEXCOORD_3": 26,
            "TEXCOORD_4": 27,
            "TEXCOORD_5": 28
          },
          "indices": 29,
          "material": 2,
          "mode": 4
        }
      ]
    },
    {
      "name": "Plane_Light_0",
      "primitives": [
        {
          "attributes": {
            "NORMAL": 31,
            "POSITION": 30,
            "TANGENT": 32,
            "TEXCOORD_0": 33,
            "TEXCOORD_1": 34,
            "TEXCOORD_2": 35,
            "TEXCOORD_3": 36,
            "TEXCOORD_4": 37,
            "TEXCOORD_5": 38
          },
          "indices": 39,
          "material": 3,
          "mode": 4
        }
      ]
    }
  ],
  "nodes": [
    {
      "children": [
        1
      ],
      "name": "RootNode (gltf orientation matrix)",
      "rotation": [
        -0.70710678118654746,
        -0,
        -0,
        0.70710678118654757
      ]
    },
    {
      "children": [
        2
      ],
      "matrix": [
        -1,
        0,
        0,
        0,
        0,
        -1,
        0,
        0,
        0,
        0,
        1,
        0,
        -9.1463998614926822e-06,
        -0.3491520881652832,
        2.7789999990091019e-07,
        1
      ],
      "name": "RootNode (model correction matrix)"
    },
    {
      "children": [
        3
      ],
      "matrix": [
        1,
        0,
        0,
        0,
        0,
        0,
        1,
        0,
        0,
        -1,
        0,
        0,
        0,
        0,
        0,
        1
      ],
      "name": "5853ba33ed9946ef87e71624a3104561.fbx"
    },
    {
      "children": [
        4
      ],
      "name": "RootNode"
    },
    {
      "children": [
        5,
        6,
        7,
        8
      ],
      "matrix": [
        7.5497899487686482e-06,
        -99.99999999999973,
        0,
        0,
        7.5497899543197633e-06,
        5.5511151231257827e-13,
        -99.99999999999973,
        0,
        29.563976287841633,
        2.2320181118769571e-06,
        2.2320181102358265e-06,
        0,
        0,
        0,
        0,
        1
      ],
      "name": "Plane"
    },
    {
      "mesh": 0,
      "name": "Plane_Metal_0"
    },
    {
      "mesh": 1,
      "name": "Plane_Hologram_0"
    },
    {
      "mesh": 2,
      "name": "Plane_Button_0"
    },
    {
      "mesh": 3,
      "name": "Plane_Light_0"
    }
  ],
  "scene": 0,
  "scenes": [
    {
      "name": "OSG_Scene",
      "nodes": [
        0
      ]
    }
  ]
}

