{
  "accessors": [
    {
      "bufferView": 2,
      "componentType": 5126,
      "count": 738,
      "max": [
        4.7103557586669922,
        4.0884828567504883,
        1.3494079113006592
      ],
      "min": [
        -4.7104434967041016,
        -4.0884757041931152,
        -1.8252440690994263
      ],
      "type": "VEC3"
    },
    {
      "bufferView": 2,
      "byteOffset": 8856,
      "componentType": 5126,
      "count": 738,
      "max": [
        1,
        1,
        1
      ],
      "min": [
        -1,
        -1,
        -1
      ],
      "type": "VEC3"
    },
    {
      "bufferView": 3,
      "componentType": 5126,
      "count": 738,
      "max": [
        1,
        1,
        0.70765256881713867,
        1
      ],
      "min": [
        -1,
        -0.99998730421066284,
        -0.7054516077041626,
        1
      ],
      "type": "VEC4"
    },
    {
      "bufferView": 1,
      "componentType": 5126,
      "count": 738,
      "max": [
        0.99034321308135986,
        0.98449790477752686
      ],
      "min": [
        0.0041778385639190674,
        0.087461017072200775
      ],
      "type": "VEC2"
    },
    {
      "bufferView": 0,
      "componentType": 5125,
      "count": 2928,
      "max": [
        737
      ],
      "min": [
        0
      ],
      "type": "SCALAR"
    },
    {
      "bufferView": 2,
      "byteOffset": 17712,
      "componentType": 5126,
      "count": 493,
      "max": [
        1.0000003576278687,
        1.0000002384185791,
        0.9807853102684021
      ],
      "min": [
        -0.99999916553497314,
        -0.99999982118606567,
        -0.9807853102684021
      ],
      "type": "VEC3"
    },
    {
      "bufferView": 2,
      "byteOffset": 23628,
      "componentType": 5126,
      "count": 493,
      "max": [
        1,
        1,
        1
      ],
      "min": [
        -1,
        -1,
        -1
      ],
      "type": "VEC3"
    },
    {
      "bufferView": 3,
      "byteOffset": 11808,
      "componentType": 5126,
      "count": 493,
      "max": [
        1,
        1,
        0.049125988036394119,
        1
      ],
      "min": [
        -1,
        -1,
        -0.049125958234071732,
        1
      ],
      "type": "VEC4"
    },
    {
      "bufferView": 1,
      "byteOffset": 5904,
      "componentType": 5126,
      "count": 493,
      "max": [
        0.99898445606231689,
        0.99898445606231689
      ],
      "min": [
        0.0010155737400054932,
        0.0010155737400054932
      ],
      "type": "VEC2"
    },
    {
      "bufferView": 1,
      "byteOffset": 9848,
      "componentType": 5126,
      "count": 493,
      "max": [
        0.99898445606231689,
        0.99898445606231689
      ],
      "min": [
        0.0010155737400054932,
        0.0010155737400054932
      ],
      "type": "VEC2"
    },
    {
      "bufferView": 1,
      "byteOffset": 13792,
      "componentType": 5126,
      "count": 493,
      "max": [
        0.99898445606231689,
        0.99898445606231689
      ],
      "min": [
        0.0010155737400054932,
        0.0010155737400054932
      ],
      "type": "VEC2"
    },
    {
      "bufferView": 0,
      "byteOffset": 11712,
      "componentType": 5125,
      "count": 2496,
      "max": [
        492
      ],
      "min": [
        0
      ],
      "type": "SCALAR"
    },
    {
      "bufferView": 4,
      "componentType": 5126,
      "count": 1702,
      "max": [
        40
      ],
      "min": [
        0
      ],
      "type": "SCALAR"
    },
    {
      "bufferView": 5,
      "componentType": 5126,
      "count": 1702,
      "max": [
        0.65768831968307495,
        0.70710760354995728,
        0.70710277557373047,
        0.70710307359695435
      ],
      "min": [
        -0.70711177587509155,
        -0.25886043906211853,
        -0.4997851550579071,
        -0.49955087900161743
      ],
      "type": "VEC4"
    }
  ],
  "animations": [
    {
      "channels": [
        {
          "sampler": 0,
          "target": {
            "node": 7,
            "path": "rotation"
          }
        }
      ],
      "name": "Hologram|HologramAction.002",
      "samplers": [
        {
          "input": 12,
          "interpolation": "LINEAR",
          "output": 13
        }
      ]
    }
  ],
  "asset": {
    "extras": {
      "author": "Brandon Baldwin (https://sketchfab.com/Fecalmancer)",
      "license": "CC-BY-NC-4.0 (http://creativecommons.org/licenses/by-nc/4.0/)",
      "source": "https://sketchfab.com/3d-models/holo-table-2e97eadc6aed4d3f860e0cfccce52ffc",
      "title": "Holo-Table"
    },
    "generator": "Sketchfab-4.39.0",
    "version": "2.0"
  },
  "bufferViews": [
    {
      "buffer": 0,
      "byteLength": 21696,
      "byteOffset": 0,
      "name": "floatBufferViews",
      "target": 34963
    },
    {
      "buffer": 0,
      "byteLength": 17736,
      "byteOffset": 21696,
      "byteStride": 8,
      "name": "floatBufferViews",
      "target": 34962
    },
    {
      "buffer": 0,
      "byteLength": 29544,
      "byteOffset": 39432,
      "byteStride": 12,
      "name": "floatBufferViews",
      "target": 34962
    },
    {
      "buffer": 0,
      "byteLength": 19696,
      "byteOffset": 68976,
      "byteStride": 16,
      "name": "floatBufferViews",
      "target": 34962
    },
    {
      "buffer": 0,
      "byteLength": 6808,
      "byteOffset": 88672,
      "name": "floatBufferViews"
    },
    {
      "buffer": 0,
      "byteLength": 27232,
      "byteOffset": 95480,
      "byteStride": 16,
      "name": "floatBufferViews"
    }
  ],
  "buffers": [
    {
      "byteLength": 122712,
      "uri": "scene.bin"
    }
  ],
  "images": [
    {
      "uri": "textures/Table_metallicRoughness.png"
    },
    {
      "uri": "textures/Table_baseColor.png"
    },
    {
      "uri": "textures/Table_emissive.png"
    },
    {
      "uri": "textures/Table_normal.png"
    },
    {
      "uri": "textures/Hologram_baseColor.png"
    },
    {
      "uri": "textures/Hologram_emissive.png"
    }
  ],
  "materials": [
    {
      "alphaMode": "BLEND",
      "doubleSided": true,
      "emissiveFactor": [
        1,
        1,
        1
      ],
      "emissiveTexture": {
        "index": 2,
        "texCoord": 0
      },
      "name": "Table",
      "normalTexture": {
        "index": 3,
        "scale": 1,
        "texCoord": 0
      },
      "pbrMetallicRoughness": {
        "baseColorFactor": [
          1,
          1,
          1,
          1
        ],
        "baseColorTexture": {
          "index": 1,
          "texCoord": 0
        },
        "metallicFactor": 1,
        "metallicRoughnessTexture": {
          "index": 0,
          "texCoord": 0
        },
        "roughnessFactor": 1
      }
    },
    {
      "alphaMode": "BLEND",
      "doubleSided": true,
      "emissiveFactor": [
        1,
        1,
        1
      ],
      "emissiveTexture": {
        "index": 5,
        "texCoord": 0
      },
      "name": "Hologram",
      "pbrMetallicRoughness": {
        "baseColorFactor": [
          1,
          1,
          1,
          0.5
        ],
        "baseColorTexture": {
          "index": 4,
          "texCoord": 0
        },
        "metallicFactor": 0,
        "roughnessFactor": 1
      }
    }
  ],
  "meshes": [
    {
      "name": "Table_Table_0",
      "primitives": [
        {
          "attributes": {
            "NORMAL": 1,
            "POSITION": 0,
            "TANGENT": 2,
            "TEXCOORD_0": 3
          },
          "indices": 4,
          "material": 0,
          "mode": 4
        }
      ]
    },
    {
      "name": "Hologram_Hologram_0",
      "primitives": [
        {
          "attributes": {
            "NORMAL": 6,
            "POSITION": 5,
            "TANGENT": 7,
            "TEXCOORD_0": 8,
            "TEXCOORD_1": 9,
            "TEXCOORD_2": 10
          },
          "indices": 11,
          "material": 1,
          "mode": 4
        }
      ]
    }
  ],
  "nodes": [
    {
      "children": [
        1
      ],
      "name": "RootNode (gltf orientation matrix)",
      "rotation": [
        -0.70710678118654746,
        -0,
        -0,
        0.70710678118654757
      ]
    },
    {
      "children": [
        2
      ],
      "name": "RootNode (model correction matrix)"
    },
    {
      "children": [
        3
      ],
      "matrix": [
        1,
        0,
        0,
        0,
        0,
        0,
        1,
        0,
        0,
        -1,
        0,
        0,
        0,
        0,
        0,
        1
      ],
      "name": "Holo_Table.fbx"
    },
    {
      "children": [
        4
      ],
      "name": ""
    },
    {
      "children": [
        5,
        7
      ],
      "name": "RootNode"
    },
    {
      "children": [
        6
      ],
      "name": "Table",
      "rotation": [
        -0.7071068286895752,
        0,
        0,
        0.70710670948028564
      ],
      "scale": [
        30.479999542236328,
        30.479999542236328,
        30.479999542236328
      ],
      "translation": [
        -1.8249269260195433e-06,
        55.560962677001953,
        2.1540565739996964e-06
      ]
    },
    {
      "mesh": 0,
      "name": "Table_Table_0"
    },
    {
      "children": [
        8
      ],
      "name": "Hologram",
      "rotation": [
        -0.69113743305206299,
        0.14942920207977295,
        -0.13855485618114471,
        0.69339925050735474
      ],
      "scale": [
        52.303680419921875,
        52.303699493408203,
        52.303684234619141
      ],
      "translation": [
        3.2292959417645761e-07,
        149.31986999511719,
        -3.8117062217679631e-07
      ]
    },
    {
      "mesh": 1,
      "name": "Hologram_Hologram_0"
    }
  ],
  "samplers": [
    {
      "magFilter": 9729,
      "minFilter": 9987,
      "wrapS": 10497,
      "wrapT": 10497
    }
  ],
  "scene": 0,
  "scenes": [
    {
      "name": "OSG_Scene",
      "nodes": [
        0
      ]
    }
  ],
  "textures": [
    {
      "sampler": 0,
      "source": 0
    },
    {
      "sampler": 0,
      "source": 1
    },
    {
      "sampler": 0,
      "source": 2
    },
    {
      "sampler": 0,
      "source": 3
    },
    {
      "sampler": 0,
      "source": 4
    },
    {
      "sampler": 0,
      "source": 5
    }
  ]
}

